# Blender v2.79 (sub 0) OBJ File: 'd10.blend'
# www.blender.org
mtllib d10.mtl
o Cone_Cone.001
v -0.000000 0.094670 -0.904508
v 0.860239 0.094670 -0.279509
v 0.531657 0.094670 0.731763
v 0.000000 0.900000 0.000000
v -0.587785 0.094670 0.809017
v -0.860239 0.094670 -0.279509
v -0.000000 -0.094670 0.904508
v 0.860239 -0.094670 0.279509
v 0.531657 -0.094670 -0.731763
v 0.000000 -0.900000 -0.000000
v -0.531657 -0.094670 -0.731763
v -0.860239 -0.094670 0.279509
vn 0.4342 0.6740 -0.5977
vn 0.7026 0.6740 0.2283
vn 0.0560 0.5826 0.8108
vn -0.7884 0.5826 0.1973
vn -0.4342 0.6740 -0.5977
vn 0.4342 -0.6740 0.5977
vn 0.7026 -0.6740 -0.2283
vn 0.0000 -0.6740 -0.7387
vn -0.7026 -0.6740 -0.2283
vn -0.3390 -0.8170 0.4665
vn 0.4350 0.6725 -0.5988
vn 0.7039 0.6725 0.2287
vn 0.0499 0.6895 0.7226
vn -0.7026 0.6895 0.1759
vn -0.4350 0.6725 -0.5988
vn 0.4350 -0.6725 0.5988
vn 0.7039 -0.6725 -0.2287
vn 0.0000 -0.6725 -0.7401
vn -0.7039 -0.6725 -0.2287
vn -0.4350 -0.6725 0.5988
usemtl None
s off
f 1//1 2//1 9//1
f 2//2 3//2 8//2
f 3//3 5//3 7//3
f 5//4 6//4 12//4
f 6//5 1//5 11//5
f 7//6 8//6 3//6
f 8//7 9//7 2//7
f 9//8 11//8 1//8
f 11//9 12//9 6//9
f 12//10 7//10 5//10
f 1//11 4//11 2//11
f 2//12 4//12 3//12
f 3//13 4//13 5//13
f 5//14 4//14 6//14
f 6//15 4//15 1//15
f 7//16 10//16 8//16
f 8//17 10//17 9//17
f 9//18 10//18 11//18
f 11//19 10//19 12//19
f 12//20 10//20 7//20
